<?xml version="1.0" encoding="utf-8"?>
<!-- Generator: Adobe Illustrator 24.0.2, SVG Export Plug-In . SVG Version: 6.00 Build 0)  -->
<svg version="1.1" id="Capa_1" xmlns="http://www.w3.org/2000/svg" xmlns:xlink="http://www.w3.org/1999/xlink" x="0px" y="0px"
	 viewBox="0 0 32 32" style="enable-background:new 0 0 32 32;" xml:space="preserve">
<style type="text/css">
	.st0{fill:#4D75F2;}
	.st1{fill:#E3EDFC;}
	.st2{fill-rule:evenodd;clip-rule:evenodd;fill:#4D75F2;}
	.st3{fill-rule:evenodd;clip-rule:evenodd;fill:#E3EDFC;}
</style>
<g>
	<path class="st0" d="M17,29.6c0-1.2,0-2.2,0-3.3c0-5.8,0-11.7,0-17.5C17,8,17.5,7.5,17.9,7c1.9-2.4,4.5-3.7,7.5-4.2
		c1.1-0.2,2.3-0.3,3.4-0.4c1-0.1,1.6,0.5,1.6,1.5c0,6.5,0,13.1,0,19.6c0,1.1-0.8,1.7-1.7,1.7c-2.7,0-5.3,0.5-7.8,1.6
		C19.9,27.4,18.7,28,17,29.6z"/>
	<path class="st0" d="M15,29.5c-0.6-0.5-1.2-1-1.9-1.5c-1.7-1.3-3.6-2-5.7-2.4c-1.4-0.3-2.8-0.4-4.3-0.4c-0.9,0-1.5-0.6-1.5-1.5
		c0-6.6,0-13.2,0-19.8c0-0.8,0.6-1.6,1.7-1.5c1.3,0.1,2.7,0.2,4,0.5c2,0.5,3.8,1.3,5.4,2.6c0.8,0.7,1.5,1.5,2.1,2.4
		C14.9,8.1,15,8.4,15,8.7c0,6.9,0,13.7,0,20.6C15,29.4,15,29.4,15,29.5z"/>
</g>
</svg>
